<svg xmlns="http://www.w3.org/2000/svg" width="96" height="96" viewBox="0 0 96 96" fill="none">
  <rect x="14" y="16" width="68" height="50" rx="14" fill="#4B9FE8"/>
  <rect x="20" y="22" width="56" height="38" rx="10" fill="#FFFFFF"/>
  <path d="M30 30C30 30 26 34 26 40C26 46 30 50 30 50" stroke="#4B9FE8" stroke-width="5" stroke-linecap="round"/>
  <path d="M66 30C66 30 70 34 70 40C70 46 66 50 66 50" stroke="#4B9FE8" stroke-width="5" stroke-linecap="round"/>
  <rect x="36" y="38" width="24" height="4" rx="2" fill="#B8D9F0"/>
  <rect x="36" y="46" width="18" height="4" rx="2" fill="#B8D9F0"/>
  <rect x="36" y="54" width="22" height="4" rx="2" fill="#B8D9F0"/>
  <path d="M30 66L22 74H30V66Z" fill="#4B9FE8"/>
  <circle cx="62" cy="60" r="8" fill="#3DD968"/>
</svg>
