<svg xmlns="http://www.w3.org/2000/svg" viewBox="0 0 120 120" width="120" height="120">
  <circle cx="60" cy="50" r="35" fill="#ffe9a8" opacity="0.5"/>
  <path d="M60 18c-19 0-34 14.5-34 33 0 12 6.6 20.4 13.2 26.7 2.7 2.6 4.3 4.8 4.8 8.3l1 7h30l1-7c0.5-3.5 2.1-5.7 4.8-8.3C87.4 71.4 94 63 94 51c0-18.5-15-33-34-33z" fill="#ffcf4d" stroke="#f0a92e" stroke-width="2.5"/>
  <path d="M47 36c-4 4-6.5 9-6.5 14.5" fill="none" stroke="#fff4c8" stroke-width="4.5" stroke-linecap="round"/>
  <path d="M52 70h16M54 78h12" stroke="#f0a92e" stroke-width="2.5" stroke-linecap="round"/>
  <rect x="48" y="92" width="24" height="9" rx="3" fill="#bcc3cc"/>
  <rect x="50.5" y="101" width="19" height="8" rx="3" fill="#9aa3ad"/>
  <path d="M55 109h10" stroke="#7d8791" stroke-width="3" stroke-linecap="round"/>
</svg>
