<svg xmlns="http://www.w3.org/2000/svg" width="72" height="72" viewBox="0 0 72 72" fill="none">
  <path d="M14 20C14 17.7909 15.7909 16 18 16H30C32.2091 16 34 17.7909 34 20V52C34 54.2091 32.2091 56 30 56H18C15.7909 56 14 54.2091 14 52V20Z" fill="#BFE8CF" stroke="#9FD4B5" stroke-width="2"/>
  <path d="M38 20C38 17.7909 39.7909 16 42 16H54C56.2091 16 58 17.7909 58 20V52C58 54.2091 56.2091 56 54 56H42C39.7909 56 38 54.2091 38 52V20Z" fill="#D4F2DF" stroke="#9FD4B5" stroke-width="2"/>
  <path d="M22 26H26" stroke="#F3FBF6" stroke-width="2" stroke-linecap="round"/>
  <path d="M22 32H26" stroke="#F3FBF6" stroke-width="2" stroke-linecap="round"/>
  <path d="M46 26H50" stroke="#F3FBF6" stroke-width="2" stroke-linecap="round"/>
  <path d="M46 32H50" stroke="#F3FBF6" stroke-width="2" stroke-linecap="round"/>
</svg>
